<svg height="442pt" viewBox="0 -5 442.52331 442" width="442pt" xmlns="http://www.w3.org/2000/svg"><path d="m297.363281 81.621094 140.882813-81.359375c8.832031 15.332031 3.566406 34.921875-11.761719 43.761719l-95.199219 54.957031-10 101.203125v45.757812c0 6.664063-2.101562 13.15625-6 18.558594l-27.039062 37.921875c-5.121094 7.425781-15.023438 9.78125-22.9375 5.453125-7.914063-4.328125-11.277344-13.9375-7.785156-22.253906l-8.238282 18.5625 20.800782 104.238281c1.867187 9.03125-3.859376 17.890625-12.859376 19.902344-9 2.007812-17.949218-3.574219-20.101562-12.542969l-24.480469-97.917969c-2.152343-8.859375-1.28125-18.179687 2.480469-26.480469l42.160156-91.199218-1.121094-17.523438" fill="#ccdce5"/><path d="m259.886719 103.222656-127 73.359375 16 27.679688 104.878906-60.558594 3.519531 56.480469-42.160156 91.199218c-3.761719 8.300782-4.632812 17.621094-2.480469 26.480469l24.480469 97.917969c2.152344 8.96875 11.101562 14.550781 20.101562 12.542969 9-2.011719 14.726563-10.871094 12.859376-19.902344l-20.839844-104.238281 8.238281-18.5625c-3.492187 8.316406-.128906 17.925781 7.785156 22.253906 7.914063 4.328125 17.816407 1.972656 22.933594-5.453125l27.042969-37.921875c3.898437-5.402344 6-11.894531 6-18.558594v-45.757812l10.039062-101.203125 95.199219-54.957031c15.328125-8.839844 20.59375-28.429688 11.761719-43.761719l-140.921875 81.359375zm0 0" fill="#ccdce5"/><path d="m298.589844 73.03125c0 17.203125-13.949219 31.152344-31.152344 31.152344-17.207031 0-31.152344-13.949219-31.152344-31.152344 0-17.207031 13.945313-31.152344 31.152344-31.152344 17.203125 0 31.152344 13.945313 31.152344 31.152344zm0 0" fill="#f5be9a"/><path d="m257.246094 200.183594-42.152344 91.199218c-3.769531 8.296876-4.648438 17.621094-2.488281 26.480469l24.488281 97.917969c2.230469 8.875 11.128906 14.355469 20.058594 12.363281 8.929687-1.996093 14.648437-10.742187 12.894531-19.722656l-20.800781-104.238281 8.238281-18.5625c-3.492187 8.316406-.128906 17.925781 7.785156 22.253906 7.914063 4.328125 17.816407 1.972656 22.933594-5.453125l27.042969-37.921875c3.898437-5.402344 6-11.894531 6-18.558594v-34.230468zm0 0" fill="#57646f"/><path d="m253.425781 275.0625 17.261719-38.820312c1.796875-4.039063 6.523438-5.855469 10.5625-4.058594 4.035156 1.792968 5.851562 6.523437 4.058594 10.558594l-17.265625 38.824218c-1.792969 4.035156-6.523438 5.855469-10.558594 4.058594-4.039063-1.796875-5.855469-6.523438-4.058594-10.5625zm0 0" fill="#354f5c"/><g fill="#f5be9a"><path d="m206.195312 73.03125c0 17.203125-13.945312 31.152344-31.148437 31.152344-17.207031 0-31.152344-13.949219-31.152344-31.152344 0-17.207031 13.945313-31.152344 31.152344-31.152344 17.203125 0 31.148437 13.945313 31.148437 31.152344zm0 0"/><path d="m148.085938 315.78125-6.640626 99.359375v1.121094c-.015624 8.609375 6.808594 15.675781 15.414063 15.957031 8.609375.28125 15.878906-6.324219 16.425781-14.917969l7.039063-105.117187zm0 0"/><path d="m98.683594 288.183594h-30.398438c-8.824218.023437-15.972656 7.171875-16 16 .066406 8.808594 7.191406 15.933594 16 16h40zm0 0"/></g><path d="m4.285156.285156c-8.835937 15.308594-3.585937 34.878906 11.71875 43.710938l98.152344 56.671875-4.871094 62.714843c-.660156 8.5-2.515625 16.863282-5.511718 24.847657l-13.113282 34.96875c-4.132812 11.03125-4.539062 23.113281-1.152344 34.398437l18.777344 62.585938 72-8-15.574218-67.523438c-5.46875-23.679687-3.121094-48.492187 6.695312-70.726562l14.144531-32.046875 80.390625 46.398437c7.351563 4.253906 16.09375 5.410156 24.296875 3.214844 8.207031-2.195312 15.203125-7.5625 19.445313-14.917969zm0 0" fill="#fde700"/><path d="m298.589844 73.03125c0 17.203125-13.949219 31.152344-31.152344 31.152344-17.207031 0-31.152344-13.949219-31.152344-31.152344 0-17.207031 13.945313-31.152344 31.152344-31.152344 17.203125 0 31.152344 13.945313 31.152344 31.152344zm0 0" fill="#f5be9a"/></svg>