<svg height="512" viewBox="0 0 128 128" width="512" xmlns="http://www.w3.org/2000/svg"><g><g><path d="m85.04 94.821a5 5 0 0 1 -5-5c0-23.543-4.773-34.517-8.383-39.45l-.909 2.543a5 5 0 0 1 -3.148 3.068l-11.666 3.833a5 5 0 1 1 -3.121-9.5l9.341-3.069 2.511-7.029a5 5 0 0 1 6.173-3.1c1.965.6 19.2 7.2 19.2 52.7a5 5 0 0 1 -4.998 5.004z" fill="#ffbda3"/><path d="m18.123 70.058h91.754v12.91h-91.754z" fill="#ff4547"/><g fill="#e00016"><path d="m26.543 102.293h-4.625l6.125-19.325h6.625z"/><path d="m101.457 102.293h4.625l-6.125-19.325h-6.625z"/></g><circle cx="33.714" cy="63.65" fill="#ffbda3" r="6.408"/><circle cx="63.298" cy="32.115" fill="#ffbda3" r="6.408"/><path d="m42.363 89.992a5 5 0 0 1 -3.989-8.009l5.361-7.227v-9.656a5 5 0 0 1 5-5h46.958a5 5 0 0 1 0 10h-41.958v6.333a5 5 0 0 1 -1.007 3.01l-6.368 8.557a4.993 4.993 0 0 1 -3.997 1.992z" fill="#ffa685"/></g><g fill="#680000"><path d="m77.1 43.943a1.75 1.75 0 1 0 2.676-2.255c-.266-.316-.532-.618-.8-.9a1.75 1.75 0 1 0 -2.576 2.369c.236.243.467.51.7.786z"/><path d="m109.877 68.308h-8.248a6.749 6.749 0 0 0 -5.936-9.962h-7.651a53.756 53.756 0 0 0 -4.55-11.224 1.75 1.75 0 0 0 -3.056 1.707 49.034 49.034 0 0 1 3.953 9.517h-6.807a34.53 34.53 0 0 0 -4.513-9.009 1.75 1.75 0 0 0 -3.06.445l-.909 2.544a3.23 3.23 0 0 1 -2.046 1.994l-11.667 3.833a3.25 3.25 0 0 1 -2.028-6.175l9.341-3.069a1.752 1.752 0 0 0 1.1-1.074l2.511-7.03a3.243 3.243 0 0 1 4.013-2.013 9.455 9.455 0 0 1 1.974.931 1.75 1.75 0 0 0 1.8-3 12.765 12.765 0 0 0 -2.745-1.273c-.181-.056-.363-.1-.546-.139a8.159 8.159 0 1 0 -8.007 4.936l-2 5.6-8.528 2.8a6.751 6.751 0 0 0 -4.306 8.519 6.889 6.889 0 0 0 .521 1.187 6.752 6.752 0 0 0 -6.5 6.737v3.212h-1.587a8.157 8.157 0 1 0 -13.376 0h-8.9a1.75 1.75 0 0 0 -1.75 1.75v12.91a1.751 1.751 0 0 0 1.75 1.75h7.53l-5.4 17.046a1.749 1.749 0 0 0 1.668 2.278h4.625a1.749 1.749 0 0 0 1.613-1.071l7.467-17.765a6.746 6.746 0 0 0 12.138 3.843l6.361-8.553a6.8 6.8 0 0 0 1.359-4.063v-4.619h6.1a1.75 1.75 0 1 0 0-3.5h-7.851a1.75 1.75 0 0 0 -1.75 1.75v.023.015 6.333a3.277 3.277 0 0 1 -.661 1.965l-6.361 8.554a3.251 3.251 0 1 1 -5.184-3.923l5.363-7.225a1.746 1.746 0 0 0 .344-1.043v-9.657a3.254 3.254 0 0 1 3.25-3.25h27.576.016.015 19.351a3.242 3.242 0 0 1 .377 6.462h-21.07a1.75 1.75 0 0 0 0 3.5h20.333a1.78 1.78 0 0 0 .36.038 6.928 6.928 0 0 0 .71-.038h11.724v9.41h-49.294a1.75 1.75 0 1 0 0 3.5h19.367c.053 1.665.089 3.363.089 5.1a6.75 6.75 0 0 0 13.5 0c0-1.734-.034-3.433-.084-5.1h6.97l5.015 15.824h-1.07l-5.184-12.33a1.75 1.75 0 0 0 -3.227 1.357l5.635 13.4a1.749 1.749 0 0 0 1.613 1.071h4.625a1.749 1.749 0 0 0 1.668-2.278l-5.4-17.046h7.53a1.751 1.751 0 0 0 1.75-1.75v-12.912a1.75 1.75 0 0 0 -1.753-1.75zm-51.237-36.193a4.658 4.658 0 1 1 4.66 4.658 4.662 4.662 0 0 1 -4.66-4.658zm-29.583 31.535a4.658 4.658 0 1 1 4.657 4.658 4.663 4.663 0 0 1 -4.657-4.658zm-3.677 36.892h-1.071l5.015-15.824h2.71zm11.6-19.613c-.071.094-.13.193-.2.289h-16.907v-9.41h22.112v2.37zm31.17-23.284a6.7 6.7 0 0 0 3.9-3.337 35.229 35.229 0 0 1 1.8 4.038h-7.836zm20.14 32.176a3.25 3.25 0 0 1 -6.5 0c0-1.738-.036-3.436-.088-5.1h6.5c.053 1.665.088 3.364.088 5.1z"/><path d="m69.03 71.808a1.75 1.75 0 0 0 0-3.5h-.985a1.75 1.75 0 0 0 0 3.5z"/></g></g></svg>