<svg height="409pt" viewBox="-1 0 409 409.6" width="409pt" xmlns="http://www.w3.org/2000/svg"><path d="m386.65625 157.484375-56.496094 26.363281-64.027344-26.363281 5.511719-20.480469c4.03125-14.957031 4.03125-30.710937 0-45.667968l-5.511719-20.480469h120.527344l-5.515625 20.480469c-4.027343 14.957031-4.027343 30.714843 0 45.667968zm0 0" fill="#ffd578"/><path d="m330.160156 190.675781c-.886718 0-1.765625-.167969-2.601562-.511719l-64.027344-26.367187c-3.179688-1.308594-4.886719-4.773437-3.996094-8.089844l5.515625-20.480469c3.710938-13.773437 3.710938-28.339843 0-42.117187l-5.515625-20.476563c-.550781-2.050781-.117187-4.242187 1.175782-5.929687 1.292968-1.683594 3.296874-2.671875 5.417968-2.671875h120.527344c2.125 0 4.128906.988281 5.421875 2.671875 1.289063 1.6875 1.722656 3.875 1.171875 5.925781l-5.511719 20.480469c-3.714843 13.78125-3.714843 28.339844-.003906 42.117187l5.515625 20.484376c.863281 3.199218-.703125 6.558593-3.707031 7.960937l-56.496094 26.367187c-.914063.425782-1.902344.636719-2.886719.636719zm-55.878906-37.21875 55.710938 22.9375 48.582031-22.671875-4.023438-14.945312c-4.335937-16.097656-4.335937-33.117188.003907-49.21875l3.195312-11.875h-102.710938l3.199219 11.875c4.335938 16.101562 4.335938 33.121094 0 49.21875zm0 0" fill="#54596e"/><path d="m266.128906 61.441406 5.515625 24.746094c1.191407 5.335938 1.984375 10.757812 2.472657 16.210938h104.554687c.484375-5.453126 1.28125-10.875 2.472656-16.210938l5.511719-24.746094z" fill="#a1b7ff"/><path d="m378.667969 109.226562h-104.550781c-3.539063 0-6.488282-2.699218-6.800782-6.21875-.480468-5.371093-1.261718-10.53125-2.332031-15.339843l-5.515625-24.742188c-.453125-2.023437.039062-4.140625 1.335938-5.757812 1.296874-1.613281 3.253906-2.554688 5.324218-2.554688h120.527344c2.070312 0 4.03125.941407 5.328125 2.554688 1.296875 1.617187 1.785156 3.734375 1.335937 5.753906l-5.511718 24.746094c-1.066406 4.777343-1.855469 9.9375-2.335938 15.339843-.320312 3.523438-3.269531 6.21875-6.804687 6.21875zm-98.441407-13.652343h92.339844c.5-3.765625 1.140625-7.40625 1.914063-10.875l3.664062-16.433594h-103.496093l3.660156 16.433594c.777344 3.488281 1.417968 7.125 1.917968 10.875zm0 0" fill="#54596e"/><path d="m367.710938 78.390625c17.5625 0 31.800781-17.207031 31.800781-38.433594v-3.640625c0-16.285156-10.925781-29.488281-24.402344-29.488281h-94.558594c-13.476562 0-24.402343 13.203125-24.402343 29.488281v3.640625c0 21.226563 14.238281 38.433594 31.800781 38.433594" fill="#a1b7ff"/><path d="m367.710938 85.21875c-3.769532 0-6.828126-3.058594-6.828126-6.828125s3.058594-6.828125 6.828126-6.828125c13.769531 0 24.972656-14.179688 24.972656-31.605469v-3.640625c0-12.496094-7.882813-22.664062-17.574219-22.664062h-94.558594c-9.691406 0-17.574219 10.167968-17.574219 22.664062v3.640625c0 17.425781 11.203126 31.605469 24.972657 31.605469 3.769531 0 6.828125 3.058594 6.828125 6.828125s-3.058594 6.828125-6.828125 6.828125c-21.296875 0-38.625-20.304688-38.625-45.261719v-3.640625c0-20.027344 14.003906-36.316406 31.226562-36.316406h94.558594c17.21875 0 31.226563 16.289062 31.226563 36.316406v3.640625c0 24.957031-17.324219 45.261719-38.625 45.261719zm0 0" fill="#54596e"/><path d="m396.675781 181.53125-10.019531-24.046875h-1.972656c-6.703125 6.492187-30.21875 11.300781-58.289063 11.300781-28.070312 0-51.585937-4.804687-58.289062-11.300781h-1.972657l-10.019531 24.046875c-5.757812 13.820312-3.742187 28.980469-1.28125 43.75h143.125c2.460938-14.765625 4.476563-29.929688-1.28125-43.75zm0 0" fill="#999"/><g fill="#54596e"><path d="m397.957031 232.105469h-143.125c-3.339843 0-6.1875-2.410157-6.734375-5.703125-2.71875-16.332032-4.636718-32.25 1.710938-47.492188l10.023437-24.054687c1.054688-2.542969 3.542969-4.199219 6.296875-4.199219h1.976563c1.773437 0 3.480469.6875 4.753906 1.925781 4.015625 3.890625 23.277344 9.375 53.535156 9.375 30.257813 0 49.519531-5.480469 53.53125-9.375 1.273438-1.238281 2.980469-1.925781 4.753907-1.925781h1.976562c2.753906 0 5.238281 1.65625 6.296875 4.199219l10.019531 24.050781c6.355469 15.238281 4.4375 31.160156 1.714844 47.496094-.542969 3.292968-3.394531 5.703125-6.730469 5.703125zm-137.300781-13.652344h131.476562c1.878907-12.554687 2.5625-23.933594-1.753906-34.292969l-7.300781-17.519531c-13.289063 6.535156-37.582031 8.96875-56.683594 8.96875-19.097656 0-43.390625-2.433594-56.683593-8.96875l-7.300782 17.519531c-4.289062 10.300782-3.570312 22.046875-1.753906 34.292969zm0 0"/><path d="m311.332031 228.339844c-2.207031 0-4.371093-1.066406-5.683593-3.039063l-7.53125-11.300781c-2.089844-3.140625-1.246094-7.375 1.890624-9.464844 3.136719-2.101562 7.378907-1.246094 9.46875 1.890625l7.53125 11.300781c2.089844 3.140626 1.242188 7.375-1.894531 9.464844-1.164062.777344-2.480469 1.148438-3.78125 1.148438zm0 0"/><path d="m341.453125 228.339844c-1.300781 0-2.617187-.371094-3.777344-1.148438-3.140625-2.089844-3.984375-6.328125-1.894531-9.464844l7.53125-11.300781c2.09375-3.136719 6.332031-3.992187 9.46875-1.890625 3.136719 2.089844 3.984375 6.328125 1.894531 9.464844l-7.535156 11.300781c-1.316406 1.972657-3.480469 3.039063-5.6875 3.039063zm0 0"/></g><path d="m75.789062 191.148438c-23.785156 0-45.609374 14.355468-53.882812 36.65625-9.351562 25.203124-14.78125 55.269531-14.78125 87.554687 0 32.253906 5.476562 62.226563 14.804688 87.414063h154.414062c9.328125-25.1875 14.804688-55.160157 14.804688-87.414063 0-32.285156-5.429688-62.351563-14.78125-87.554687-8.269532-22.300782-30.097657-36.65625-53.882813-36.65625zm0 0" fill="#ffd578"/><path d="m176.34375 409.601562h-154.414062c-2.855469 0-5.410157-1.777343-6.398438-4.457031-9.964844-26.894531-15.230469-57.941406-15.230469-89.78125 0-32.019531 5.253907-63.117187 15.207031-89.929687 9.117188-24.59375 33.34375-41.113282 60.28125-41.113282h46.691407c26.9375 0 51.164062 16.519532 60.285156 41.109376 9.949219 26.8125 15.207031 57.914062 15.207031 89.933593 0 31.839844-5.269531 62.886719-15.230468 89.777344-.988282 2.683594-3.542969 4.460937-6.398438 4.460937zm-149.605469-13.65625h144.796875c8.371094-24.347656 12.785156-52.09375 12.785156-80.582031 0-30.417969-4.964843-59.875-14.355468-85.1875-7.144532-19.257812-26.226563-32.203125-47.480469-32.203125h-46.695313c-21.257812 0-40.335937 12.945313-47.484374 32.203125-9.386719 25.3125-14.351563 54.769531-14.351563 85.1875 0 28.488281 4.414063 56.234375 12.785156 80.582031zm0 0" fill="#54596e"/><path d="m92.308594 279.894531h13.65625v13.652344h-13.65625zm0 0" fill="#54596e"/><path d="m7.320312 320.851562c.5 30.148438 5.730469 58.210938 14.609376 81.921876h154.414062c8.878906-23.710938 14.109375-51.773438 14.609375-81.921876zm0 0" fill="#999"/><path d="m176.34375 409.601562h-154.414062c-2.847657 0-5.394532-1.769531-6.390626-4.433593-9.34375-24.953125-14.542968-54.070313-15.042968-84.203125-.03125-1.828125.675781-3.59375 1.957031-4.898438 1.285156-1.308594 3.035156-2.039062 4.867187-2.039062h183.636719c1.828125 0 3.582031.734375 4.867188 2.039062 1.28125 1.304688 1.988281 3.070313 1.957031 4.898438-.5 30.132812-5.703125 59.25-15.042969 84.203125-.996093 2.664062-3.550781 4.433593-6.394531 4.433593zm-149.617188-13.65625h144.820313c7.121094-20.554687 11.359375-43.933593 12.375-68.265624h-169.574219c1.019532 24.332031 5.257813 47.710937 12.378906 68.265624zm0 0" fill="#54596e"/><path d="m99.136719 402.773438c-3.769531 0-6.828125-3.058594-6.828125-6.828126v-20.480468c0-3.769532 3.058594-6.824219 6.828125-6.824219s6.828125 3.054687 6.828125 6.824219v20.480468c0 3.769532-3.058594 6.828126-6.828125 6.828126zm0 0" fill="#54596e"/><path d="m148.710938 213.679688c21.632812 0 39.171874-20.191407 39.171874-45.097657v-4.273437c0-19.109375-13.457031-34.601563-30.058593-34.601563h-116.480469c-16.601562 0-30.058594 15.492188-30.058594 34.601563v4.273437c0 24.90625 17.535156 45.097657 39.171875 45.097657" fill="#a1b7ff"/><path d="m148.710938 220.503906c-3.769532 0-6.828126-3.058594-6.828126-6.828125s3.058594-6.824219 6.828126-6.824219c17.835937 0 32.34375-17.167968 32.34375-38.269531v-4.273437c0-15.316406-10.421876-27.773438-23.230469-27.773438h-116.480469c-12.808594 0-23.230469 12.457032-23.230469 27.773438v4.273437c0 21.101563 14.511719 38.269531 32.34375 38.269531 3.769531 0 6.828125 3.054688 6.828125 6.824219s-3.058594 6.828125-6.828125 6.828125c-25.363281 0-45.996093-23.289062-45.996093-51.921875v-4.273437c0-22.84375 16.546874-41.429688 36.882812-41.429688h116.480469c20.339843 0 36.886719 18.589844 36.886719 41.429688v4.273437c0 28.632813-20.636719 51.921875-46 51.921875zm0 0" fill="#54596e"/><path d="m99.136719 116.054688c-3.769531 0-6.828125-3.058594-6.828125-6.828126v-13.652343c0-3.769531 3.058594-6.828125 6.828125-6.828125s6.828125 3.058594 6.828125 6.828125v13.652343c0 3.769532-3.058594 6.828126-6.828125 6.828126zm0 0" fill="#ff927d"/><path d="m99.136719 77.417969c-3.769531 0-6.828125-3.054688-6.828125-6.824219v-21.382812c0-1.601563.132812-3.171876.386718-4.699219.613282-3.71875 4.089844-6.242188 7.855469-5.613281 3.722657.613281 6.234375 4.132812 5.613281 7.851562-.132812.800781-.199218 1.621094-.199218 2.460938v21.382812c0 3.769531-3.058594 6.824219-6.828125 6.824219zm16.128906-42.515625c-3.007813 0-5.757813-2-6.582031-5.039063-.988282-3.636719 1.15625-7.390625 4.796875-8.375 2.457031-.671875 5-1.007812 7.5625-1.007812h19.140625c3.769531 0 6.824218 3.054687 6.824218 6.828125 0 3.769531-3.054687 6.824218-6.824218 6.824218h-19.140625c-1.355469 0-2.691407.179688-3.980469.527344-.601562.164063-1.207031.242188-1.796875.242188zm74.878906-.769532h-24.980469c-3.769531 0-6.828124-3.054687-6.828124-6.824218 0-3.773438 3.058593-6.828125 6.828124-6.828125h24.980469c3.769531 0 6.828125 3.054687 6.828125 6.828125 0 3.769531-3.058594 6.824218-6.828125 6.824218zm0 0" fill="#ff927d"/><path d="m228.84375 34.132812h-13.652344c-3.773437 0-6.828125-3.054687-6.828125-6.824218 0-3.773438 3.054688-6.828125 6.828125-6.828125h13.652344c3.769531 0 6.824219 3.054687 6.824219 6.828125 0 3.769531-3.054688 6.824218-6.824219 6.824218zm0 0" fill="#ff927d"/><path d="m283.457031 348.160156h81.917969v27.304688h-81.917969zm0 0" fill="#d8d8d8"/><path d="m365.375 382.292969h-81.917969c-3.769531 0-6.828125-3.054688-6.828125-6.828125v-27.304688c0-3.769531 3.058594-6.828125 6.828125-6.828125h81.917969c3.773438 0 6.828125 3.058594 6.828125 6.828125v27.304688c0 3.773437-3.054687 6.828125-6.828125 6.828125zm-75.09375-13.652344h68.269531v-13.652344h-68.269531zm0 0" fill="#54596e"/><path d="m365.375 327.679688h27.308594v68.265624h-27.308594zm0 0" fill="#999"/><path d="m392.683594 402.773438h-27.308594c-3.769531 0-6.824219-3.058594-6.824219-6.828126v-68.265624c0-3.769532 3.054688-6.828126 6.824219-6.828126h27.308594c3.769531 0 6.828125 3.058594 6.828125 6.828126v68.265624c0 3.769532-3.058594 6.828126-6.828125 6.828126zm-20.480469-13.652344h13.652344v-54.613282h-13.652344zm0 0" fill="#54596e"/><path d="m256.148438 327.679688h27.308593v68.265624h-27.308593zm0 0" fill="#999"/><path d="m283.457031 402.773438h-27.308593c-3.769532 0-6.824219-3.058594-6.824219-6.828126v-68.265624c0-3.769532 3.054687-6.828126 6.824219-6.828126h27.308593c3.769531 0 6.824219 3.058594 6.824219 6.828126v68.265624c0 3.769532-3.054688 6.828126-6.824219 6.828126zm-20.480469-13.652344h13.652344v-54.613282h-13.652344zm0 0" fill="#54596e"/></svg>