<?xml version="1.0" encoding="UTF-8" standalone="no"?>
<!-- Created with Inkscape (http://www.inkscape.org/) -->

<svg
   xmlns:dc="http://purl.org/dc/elements/1.1/"
   xmlns:cc="http://creativecommons.org/ns#"
   xmlns:rdf="http://www.w3.org/1999/02/22-rdf-syntax-ns#"
   xmlns:svg="http://www.w3.org/2000/svg"
   xmlns="http://www.w3.org/2000/svg"
   xmlns:sodipodi="http://sodipodi.sourceforge.net/DTD/sodipodi-0.dtd"
   xmlns:inkscape="http://www.inkscape.org/namespaces/inkscape"
   id="svg3135"
   version="1.1"
   inkscape:version="0.48.4 r9939"
   width="890"
   height="886"
   sodipodi:docname="umbrella.png">
  <metadata
     id="metadata3141">
    <rdf:RDF>
      <cc:Work
         rdf:about="">
        <dc:format>image/svg+xml</dc:format>
        <dc:type
           rdf:resource="http://purl.org/dc/dcmitype/StillImage" />
        <dc:title></dc:title>
      </cc:Work>
    </rdf:RDF>
  </metadata>
  <defs
     id="defs3139" />
  <sodipodi:namedview
     pagecolor="#ffffff"
     bordercolor="#666666"
     borderopacity="1"
     objecttolerance="10"
     gridtolerance="10"
     guidetolerance="10"
     inkscape:pageopacity="0"
     inkscape:pageshadow="2"
     inkscape:window-width="640"
     inkscape:window-height="480"
     id="namedview3137"
     showgrid="false"
     inkscape:zoom="0.26636569"
     inkscape:cx="445"
     inkscape:cy="443"
     inkscape:window-x="53"
     inkscape:window-y="24"
     inkscape:window-maximized="0"
     inkscape:current-layer="svg3135" />
  <g
     id="g3286">
    <path
       style="fill:#fefefe"
       d="M 0,443 0,0 l 445,0 445,0 0,443 0,443 -445,0 -445,0 0,-443 z"
       id="path3302"
       inkscape:connector-curvature="0" />
    <path
       style="fill:#d5d5d5"
       d="m 378.84657,884.92242 c -40.21587,-3.19052 -76.18058,-19.43488 -93.43685,-42.20309 -13.56161,-17.89341 -19.38794,-45.1832 -12.50435,-58.56874 12.55381,-24.41161 49.84606,-28.52121 68.96675,-7.60013 2.62177,2.86864 5.55557,7.40582 6.51955,10.08262 3.58876,9.96535 5.03183,12.48937 9.56485,16.72948 5.65432,5.28895 13.45401,8.3753 24.89954,9.85277 7.77802,1.00404 8.55402,0.94434 9.79557,-0.75358 C 393.75589,810.95158 394,796.29209 394,731.48701 c 0,-92.07894 -0.75485,-84.96478 10.1589,-95.74344 L 411,628.98714 411,479.99357 c 0,-141.23545 -0.0911,-148.9931 -1.75,-148.98445 -3.3706,0.0176 -21.49324,5.04918 -31.07708,8.6283 -30.05702,11.22493 -57.32877,30.65644 -81.0619,57.75775 -10.39941,11.87528 -14.47758,14.56091 -22.11102,14.56091 -7.42539,0 -11.86388,-2.77699 -20.26484,-12.67891 C 213.87136,351.11246 159.02669,325.96292 100,328.3219 c -23.39757,0.93507 -40.411424,4.61781 -61.5,13.31198 -15.156187,6.24844 -17.631987,6.76038 -23.892478,4.9404 C 2.9736842,343.19223 -3.0784666,330.3238 1.8742174,319.5 2.8808787,317.3 7.8960262,310.1 13.01899,303.5 66.420274,234.70223 124.83444,179.26304 189.5,136.00699 237.13449,104.14337 276.94402,82.44053 386,28.881699 455.69,-5.3439752 447.16116,-3.3775652 472.5,8.9382319 494.32066,19.544037 519.17074,30.742249 566.5,51.297516 631.33632,79.456163 654.9968,90.684071 683,106.58174 754.41384,147.12403 810.39598,201.19625 864.61433,282 c 24.44196,36.42682 26.60963,40.74085 24.46777,48.6951 -1.58941,5.90262 -5.08795,10.48927 -10.1208,13.26855 -6.90971,3.81574 -12.08762,3.28046 -26.9613,-2.78719 -62.48317,-25.48972 -134.27124,-13.52426 -188,31.3354 -8.75315,7.30825 -24.34886,23.28277 -31.50139,32.26652 -6.21825,7.81029 -13.28266,11.73149 -19.80988,10.99578 -7.24075,-0.81614 -11.28101,-3.4911 -18.3387,-12.14164 C 579.38694,385.29241 557.34492,365.84897 538.97141,354.78261 519.397,342.99295 496.89049,334.46077 475.25,330.62592 L 472,330.05 l 0.0545,149.725 0.0545,149.725 4.62469,3.04036 c 2.54358,1.6722 6.11406,5.20159 7.93441,7.84309 6.45058,9.3604 6.33192,7.7827 6.33192,84.1921 0,40.74592 -0.42888,73.47187 -1.04275,79.5685 -2.86315,28.43498 -11.5119,46.26523 -29.63242,61.09019 -9.34071,7.64193 -17.49989,12.42902 -25.28302,14.83385 -14.06505,4.34581 -37.30273,6.35316 -56.19524,4.85433 z M 93,723.98649 C 60.086258,715.15132 30.41972,685.65625 21.881699,653.27924 17.23568,635.66108 18.268376,619.34718 25.65205,593.71754 30.413239,577.19086 33.20081,570.53348 49.610121,536.5 c 7.955508,-16.5 24.707029,-51.6 37.225602,-78 20.416847,-43.05641 23.016537,-48.03039 25.241767,-48.29511 2.34837,-0.27936 3.67635,2.22838 24.88894,47 12.32451,26.01231 28.66267,60.32085 36.30702,76.24121 18.53151,38.59429 23.76409,51.97831 29.34285,75.0539 5.1655,21.36616 2.87325,42.61154 -6.64234,61.56358 -5.61968,11.19262 -8.92186,15.85712 -17.81738,25.16796 -12.6214,13.21067 -25.22671,21.44254 -41.17745,26.89085 -8.5164,2.90895 -10.85023,3.27027 -22.97913,3.55757 -11.09466,0.2628 -14.836303,-0.0389 -21,-1.69347 z"
       id="path3300"
       inkscape:connector-curvature="0" />
    <path
       style="fill:#afafaf"
       d="m 366.52743,883.41211 c -44.46057,-6.90841 -76.91208,-26.97196 -90.04459,-55.67119 -3.99816,-8.73742 -5.82695,-17.47958 -5.90775,-28.24092 -0.0905,-12.0526 1.73211,-16.90244 9.13366,-24.30398 15.48627,-15.48628 43.6208,-15.99465 59.80068,-1.08056 4.88188,4.49995 7.13935,8.19806 10.5198,17.23313 3.0867,8.24994 6.8936,12.79864 13.78597,16.47223 9.65515,5.14614 28.25768,8.0376 29.57781,4.59739 0.33385,-0.86998 0.6095,-36.98248 0.61257,-80.25 0.004,-50.45761 0.37183,-79.9869 1.02693,-82.34552 1.48019,-5.32931 6.82757,-12.80462 11.65639,-16.29493 l 4.18889,-3.02776 0.0611,-149.75 c 0.0579,-141.97613 -0.0297,-149.74993 -1.6889,-149.74871 -0.9625,7.2e-4 -6.35979,1.11812 -11.99399,2.48312 -37.33743,9.04579 -75.13122,33.54469 -102.87474,66.68603 -4.09085,4.88677 -7.98012,8.42514 -10.71693,9.75 -8.80705,4.26342 -18.48889,1.69358 -25.32364,-6.72164 -6.8446,-8.42734 -21.65096,-23.34031 -30.62697,-30.8475 -35.3076,-29.5299 -75.8953,-44.39851 -121.01494,-44.33178 C 80.007135,328.059 54.172717,333.73868 30,344.88169 16.659666,351.03125 2.017521,343.387 0.36197676,329.40852 -0.44884204,322.56242 1.6255277,318.27697 12.418924,304.5 86.693438,209.69411 153.68441,152.76717 262.51485,91.975919 287.51044,78.013714 439.04514,2.5210354 445.17264,0.97811426 450.95577,-0.47809465 455.38233,0.66474072 467.45853,6.7318181 483.30394,14.692535 516.29326,29.641675 558.5,47.987332 c 82.53012,35.872691 110.73556,49.650535 143,69.852898 63.14184,39.53622 115.47382,92.65225 165.70198,168.18456 C 887.34022,316.30836 889,319.37713 889,326.32724 c 0,7.64524 -3.22344,13.54732 -9.36444,17.14618 -6.37327,3.73499 -13.25119,3.47128 -23.46316,-0.89963 -21.01007,-8.99269 -41.23012,-13.49221 -64.26304,-14.30031 -47.43562,-1.66426 -89.44081,12.51843 -126.31449,42.649 -8.22963,6.72467 -24.16535,22.80135 -33.52831,33.82487 -7.36571,8.67204 -10.69565,10.63849 -18.0934,10.68475 -7.2936,0.0456 -12.00573,-2.8361 -19.51118,-11.9321 C 561.52717,363.58562 520.11536,338.30818 474.75,330.42875 l -3.75,-0.65133 0,149.52973 0,149.52973 3.37874,2.08818 c 4.90218,3.02971 11.46905,10.50863 13.96037,15.89927 2.13716,4.62433 2.16428,5.42234 2.46951,72.67567 0.19418,42.78413 -0.0924,72.89929 -0.77288,81.21199 -1.32018,16.12766 -4.76437,30.33113 -9.75687,40.23625 -7.01654,13.92085 -27.21972,32.13246 -42.17036,38.01335 -2.96532,1.16642 -10.54753,3.00223 -16.84937,4.07959 -13.77635,2.35518 -40.78364,2.53822 -54.73171,0.37093 z M 94.5,724.03952 C 83.272784,721.07175 76.761542,718.28651 67.590544,712.52878 31.512744,689.87844 13.125716,650.85756 20.883265,613.40677 25.321016,591.98283 31.458481,574.36205 42.271762,552 c 3.85635,-7.975 20.622696,-43.075 37.258546,-78 26.627512,-55.90131 30.529572,-63.53209 32.608342,-63.76814 2.18547,-0.24816 3.84876,2.88007 22.33149,42 10.98358,23.24748 26.60747,56.07791 34.71976,72.95651 22.34554,46.49262 26.9862,58.13725 33.0024,82.81163 2.83658,11.63376 3.01376,13.43554 2.55674,26 -0.54293,14.92641 -2.91088,24.38567 -9.2705,37.03292 -12.97508,25.80332 -40.80426,47.85597 -67.47017,53.46532 -9.76216,2.05353 -24.78227,1.84791 -33.50837,-0.45872 z"
       id="path3298"
       inkscape:connector-curvature="0" />
    <path
       style="fill:#8f8f8f"
       d="m 371,883.97483 c -32.98655,-4.57641 -59.46302,-15.72144 -76.81505,-32.3346 -12.97894,-12.42628 -19.86882,-25.05795 -22.76491,-41.73637 -2.77765,-15.99633 -0.50597,-25.51619 8.23493,-34.50992 18.78103,-19.32426 55.63771,-14.50646 67.28151,8.79485 1.68494,3.37186 3.06352,6.80674 3.06352,7.63307 0,2.94646 5.13062,10.18626 9.68083,13.6606 5.56216,4.24703 15.07395,7.35326 25.11636,8.20215 5.77558,0.48822 7.58806,0.31757 8.28281,-0.77982 0.49952,-0.789 0.89609,-36.12758 0.90469,-80.61728 0.0149,-77.17731 0.0675,-79.35211 2.04866,-84.64709 2.18622,-5.8432 8.09918,-13.30302 12.34611,-15.57591 L 411,630.66204 l 0,-150.23207 0,-150.23207 -8.48031,1.85318 c -18.18364,3.97364 -38.81616,12.23805 -55.01969,22.03828 -17.67197,10.68838 -41.00318,30.94068 -53.81525,46.7135 -6.19175,7.6226 -9.94828,10.08571 -16.5797,10.8711 -7.21612,0.85465 -14.01377,-2.68405 -20.60505,-10.72651 -7.82264,-9.54493 -28.09208,-28.85213 -38,-36.19605 -17.87247,-13.24737 -36.95493,-22.86078 -58,-29.21938 -19.46694,-5.88179 -28.25505,-7.01924 -54,-6.98931 -21.155252,0.0246 -24.017238,0.2439 -35.68275,2.73419 -12.437488,2.65508 -28.631295,7.95372 -40.095763,13.11941 C 17.74465,350.24344 5.2848438,345.48603 1.1381032,333.10078 -1.5289877,325.13486 0.18193822,320.64956 11.475746,306 35.666102,274.62192 59.954103,247.20256 88.138736,219.45315 144.40275,164.05797 198.31977,125.9607 287,78.939607 304.43831,69.693258 410.96761,16.68092 434.92887,5.325538 c 13.697,-6.4910931 15.75087,-6.3306547 34.60426,2.7031152 C 493.31879,19.425767 516.52832,29.875936 560.5,48.9868 c 70.40129,30.597632 99.62754,44.552031 128.11099,61.16801 58.10216,33.89421 106.61152,78.1811 152.59879,139.31593 12.38678,16.46681 40.61206,58.26234 45.19782,66.9282 4.39745,8.31 3.38882,17.01666 -2.71893,23.4703 -7.15741,7.56274 -14.10407,7.97784 -29.47452,1.76126 -12.30796,-4.97795 -24.67005,-8.68381 -37.71415,-11.3058 -7.19845,-1.44696 -13.70406,-1.80208 -32.5,-1.77408 -21.60052,0.0322 -24.51508,0.25117 -36.05836,2.70918 -44.4947,9.47465 -81.02834,32.23501 -113.75536,70.86925 -9.08565,10.72562 -12.90349,13.15666 -20.66186,13.15666 -6.83576,0 -10.30642,-2.02248 -17.1973,-10.02151 -30.58931,-35.50849 -59.39859,-56.30374 -94.09681,-67.92143 -9.89294,-3.31235 -25.85468,-7.27629 -29.48031,-7.32113 -1.65896,-0.0205 -1.75,7.75195 -1.75,149.3968 l 0,149.41844 3.45647,2.13622 c 1.90106,1.17492 5.46935,4.37501 7.92952,7.11132 8.0823,8.98946 7.7404,4.92591 7.64534,90.868 -0.0913,82.49159 -0.21734,84.74659 -5.70178,101.97825 -3.37453,10.60248 -9.92434,20.53036 -19.62224,29.74241 -19.33812,18.36932 -32.92925,23.18828 -67.20731,23.82944 -11,0.20575 -22.925,-0.0317 -26.5,-0.52769 z M 96.233248,724.49011 C 61.952284,716.63082 31.176514,686.83353 21.879141,652.5 18.48164,639.95364 18.67386,622.01698 22.366745,607 27.244634,587.16424 32.495507,572.91167 43.051355,550.85527 48.672517,539.10987 65.785375,503.175 81.079929,471 c 15.294553,-32.175 28.324591,-59.08757 28.955641,-59.80571 0.63105,-0.71814 1.88405,-1.16384 2.78444,-0.99044 1.0649,0.20508 8.36142,14.46722 20.87623,40.80571 10.58153,22.26974 26.65881,56.03411 35.72728,75.03192 18.58876,38.94215 20.91815,44.21532 26.01009,58.88034 7.56257,21.78054 9.00618,29.06495 9.03265,45.57818 0.0204,12.70457 -0.32741,16.22423 -2.27259,23 -9.15187,31.87938 -35.50289,58.94952 -67.19367,69.02741 -10.5412,3.35217 -28.69673,4.27136 -38.766752,1.9627 z"
       id="path3296"
       inkscape:connector-curvature="0" />
    <path
       style="fill:#6f6f6f"
       d="m 368.60913,883.5137 c -43.61931,-6.23335 -76.77829,-25.70134 -90.14453,-52.92481 -5.65526,-11.51825 -7.73153,-19.73953 -7.85144,-31.08889 -0.0817,-7.73393 0.27054,-9.77371 2.50405,-14.5 6.97417,-14.75793 25.72641,-23.89331 43.39835,-21.14204 14.74582,2.29571 27.01295,11.2264 31.42004,22.87435 3.78551,10.00511 6.30243,14.31559 10.41388,17.83484 6.61315,5.66061 20.49123,9.8748 30.41873,9.2369 L 393.5,813.5 394,732 c 0.45749,-74.57016 0.64759,-81.82636 2.23582,-85.3382 2.35868,-5.21541 6.9567,-10.85373 11.21785,-13.75583 l 3.53266,-2.40597 0.007,-150.26905 0.007,-150.26905 -2.75,0.61206 c -42.13801,9.3786 -72.48855,26.31859 -102.25449,57.07279 -5.77747,5.96929 -12.40439,13.00801 -14.72648,15.64161 -4.69713,5.32725 -10.96708,8.66772 -16.26903,8.66772 -6.32119,0 -11.04391,-3.14156 -20.37476,-13.55328 C 232.47648,373.68835 212.3213,357.95578 187.5,346.00672 c -28.74621,-13.83854 -52.52178,-18.69205 -86.78967,-17.71711 -25.744282,0.73243 -41.01962,4.02161 -65.419669,14.08657 -13.012868,5.36777 -17.723337,5.81197 -24.383377,2.29934 C 3.0016099,340.50592 -1.0666919,331.61494 0.99624408,323.01566 2.3444211,317.39582 18.259028,296.38815 42.986454,267.58755 96.649229,205.08528 155.49779,155.57301 227,112.76765 265.47692,89.733143 298.6934,72.283581 381.05083,31.840376 435.29993,5.2003087 443.16918,1.6118886 448.2111,1.2149108 c 5.54702,-0.43674606 6.3515,-0.1474466 28,10.0690972 27.6761,13.061135 41.99091,19.475525 89.61081,40.154116 69.70183,30.267503 97.72776,43.825991 127.35254,61.611086 36.69336,22.02867 61.84271,41.79212 93.36838,73.37292 33.24006,33.29818 61.94772,69.9571 92.41539,118.01197 8.55382,13.49144 9.47569,15.41651 9.8481,20.56501 0.607,8.39179 -3.28032,15.13087 -11.01648,19.09821 -6.02086,3.08768 -11.14954,2.45804 -24.91247,-3.05843 -23.81933,-9.5473 -42.00486,-13.03416 -67.87737,-13.01467 -9.075,0.007 -21.08412,0.66414 -26.68694,1.46068 -49.16409,6.98957 -91.01091,32.08748 -127.23919,76.31255 C 625.7289,412.32224 620.76299,415 614.00772,415 605.97755,415 603.11521,413.17292 593.43089,401.86546 561.49001,364.57116 528.59702,343.2516 487,332.8824 c -6.325,-1.57668 -12.5125,-2.87022 -13.75,-2.87454 L 471,330 l 0,149.45196 0,149.45196 4.25,2.94819 c 6.21471,4.31108 9.314,7.94182 12.23943,14.33817 l 2.6025,5.69028 -0.0667,75.88754 c -0.071,80.81017 -0.2869,85.07895 -5.097,100.78948 -4.92552,16.08753 -16.04973,30.74622 -31.36993,41.33707 -16.06288,11.10426 -27.28078,14.03288 -56.0583,14.63497 -13.02887,0.27259 -22.1084,-0.0467 -28.89087,-1.01592 z M 97,724.44592 C 78.419285,720.45797 61.059739,710.21333 46.19108,694.46133 35.662966,683.30774 28.847437,672.28535 24.426397,659.26248 18.084663,640.5819 17.722177,626.74969 23.008643,605.16206 28.567538,582.46195 32.408974,572.7103 50.253427,536 57.070818,521.975 73.171716,488.28823 86.0332,461.14051 c 22.68004,-47.8725 25.45862,-52.83651 28.1473,-50.28603 0.37427,0.35504 13.71695,28.09552 29.65039,61.64552 15.93344,33.55 32.34944,68.04453 36.48,76.65451 19.4205,40.48127 27.35312,72.03239 23.74066,94.42587 -7.26238,45.01924 -49.86838,82.7865 -92.88952,82.34012 C 106.94791,725.87678 100.575,725.21321 97,724.44592 z"
       id="path3294"
       inkscape:connector-curvature="0" />
    <path
       style="fill:#4f4f4f"
       d="m 372.5,883.90598 c -34.45735,-4.20069 -64.86087,-17.56301 -81.81112,-35.9559 -10.85954,-11.7838 -16.5354,-23.2651 -19.23519,-38.90957 -2.61344,-15.14412 -0.47465,-23.82746 8.13646,-33.03344 11.73977,-12.55076 33.15045,-15.99653 50.10306,-8.06345 10.38622,4.8603 15.70794,11.37026 20.81287,25.45997 4.18701,11.55624 14.34508,17.88866 32.90734,20.51405 C 395.21406,815.58668 394,824.80894 394,733.49976 c 0,-70.61577 0.17993,-79.96084 1.62151,-84.21481 2.1076,-6.21936 6.68849,-12.53478 11.52153,-15.88408 L 411,630.728 l 0,-150.38305 0,-150.38305 -2.25,0.47819 c -45.49873,9.66996 -78.63609,29.39693 -112.27435,66.83793 -5.32584,5.92791 -11.09911,11.52986 -12.8295,12.44877 -4.11389,2.18466 -13.18285,2.18226 -17.30114,-0.005 -1.73525,-0.92143 -7.93604,-7.04259 -13.77955,-13.60259 C 215.18592,354.15685 171.47788,331.72388 119.98394,328.07272 90.218497,325.9622 63.412615,330.43713 35.5,342.1763 24.696189,346.72004 22.965893,347.16825 18.141914,346.67266 7.9711829,345.62777 0.87946423,337.8617 0.78786956,327.66843 0.7281381,321.0211 2.044033,318.50328 12.827296,304.63226 67.401396,234.43101 123.11432,181.39173 188.51364,137.37705 c 50.67944,-34.10799 94.3082,-57.630471 224.95859,-121.286605 27.39934,-13.3496448 31.55222,-15.0903062 36,-15.0892417 4.27374,0.00102 7.87726,1.364637 24.02777,9.0923827 23.74093,11.359634 46.64997,21.643566 94.4784,42.411608 81.3332,35.316479 107.48106,48.519776 144.5216,72.975816 50.4367,33.30087 92.42307,74.49762 134.16495,131.64181 12.02829,16.4666 37.81725,55.52061 40.35609,61.11402 4.68611,10.32417 0.17519,21.85844 -10.25257,26.21543 -5.70752,2.38476 -10.13374,1.8832 -20.61788,-2.33629 C 850.84277,339.97976 842.675,337.02392 838,335.54745 806.96228,325.74497 770.2323,324.97719 737.84248,333.45382 698.5953,343.72506 664.6104,365.9738 635.539,400.42837 625.09793,412.80282 621.76572,415 613.43993,415 c -6.92057,0 -11.49212,-2.97542 -19.57602,-12.74117 -25.48974,-30.79284 -58.21903,-54.08903 -91.69307,-65.26565 -9.70594,-3.2407 -25.02763,-6.93409 -28.92084,-6.97154 L 471,330 l 0,149.7726 0,149.77259 3.55045,1.91204 c 4.37205,2.35451 9.6121,8.04646 12.65624,13.74771 L 489.5,649.5 l 0,80.5 c 0,79.04814 -0.039,80.66232 -2.16039,89.5 -4.44864,18.53273 -10.9146,30.19586 -23.01651,41.5166 -18.55841,17.36049 -33.68221,22.71054 -66.3231,23.46185 -9.625,0.22155 -21.1,-0.0361 -25.5,-0.57247 z M 99.5,724.92256 C 70.202891,719.1114 43.006739,698.0479 29.232275,670.5 24.019517,660.07487 21.463565,651.5978 20.0651,640.09615 18.744893,629.23813 19.269813,622.63994 22.649721,607.60777 27.011403,588.20914 34.40724,567.88917 43.786653,549.53433 45.763669,545.66545 61.402447,513.025 78.539493,477 106.1768,418.90165 109.96909,411.46777 112.09888,411.21475 c 2.24143,-0.26628 3.79502,2.65994 23.36044,44 11.52763,24.35689 27.59803,58.1069 35.71199,75.00002 16.57373,34.50621 20.04578,42.53887 25.19328,58.28523 6.91317,21.14761 8.11439,27.58467 8.0242,43 -0.0714,12.19856 -0.42979,15.15014 -2.78555,22.93836 -9.99002,33.02734 -37.73341,60.1892 -70.60324,69.12332 -6.94381,1.88735 -24.92859,2.66434 -31.5,1.36088 z"
       id="path3292"
       inkscape:connector-curvature="0" />
    <path
       style="fill:#333333"
       d="m 374.10712,883.92938 c -47.52782,-5.3783 -83.53879,-26.19794 -97.0048,-56.08305 -5.97403,-13.25814 -7.93338,-30.81745 -4.56903,-40.94657 1.89348,-5.70073 8.74588,-13.70321 14.73201,-17.20458 14.14874,-8.27579 34.7818,-7.50499 48.29851,1.80432 6.39997,4.40784 9.42572,8.64374 13.94563,19.52322 3.90951,9.41024 7.78254,14.02746 14.75591,17.5912 8.79303,4.49367 26.43753,7.65394 28.54642,5.11289 0.82985,-0.99991 1.21651,-23.35213 1.41505,-81.80134 L 394.5,651.5 l 2.37765,-5.26046 c 1.49839,-3.31516 4.54923,-7.27097 8.25,-10.69723 L 411,630.10554 411,480.05277 c 0,-82.52902 -0.3375,-150.05219 -0.75,-150.05148 -0.4125,7.2e-4 -5.25,1.09499 -10.75,2.43173 -39.09331,9.50134 -72.18184,30.17151 -102.19494,63.84043 -5.7723,6.4754 -11.68982,12.37776 -13.15007,13.11635 -4.64238,2.34813 -9.47234,2.70512 -14.87837,1.09971 -4.6441,-1.37915 -6.18671,-2.70729 -16.19963,-13.94731 C 215.60749,354.48076 172.7653,332.17268 121.30827,327.92977 92.678622,325.5691 66.309065,329.8146 36.837848,341.52952 21.944144,347.44982 18.620739,347.93795 12.5,345.10414 4.6625908,341.47553 0.99730851,335.60304 1.0037381,326.6849 1.0081532,320.5609 2.0296238,318.68853 13.379471,304 71.821139,228.36709 136.43789,169.24151 212.5,121.80086 254.63237,95.522496 300.70239,71.30471 412.76535,16.526667 c 39.62869,-19.3710926 34.53853,-18.9154569 62.33507,-5.5798 23.05998,11.063242 43.38085,20.17897 94.39958,42.346661 60.65249,26.353568 88.22271,39.523336 115.5,55.172142 72.17924,41.40876 127.31711,95.65088 183.64856,180.66506 17.38996,26.24454 20.35881,31.68015 20.32948,37.22082 C 888.92208,336.92239 879.96289,346 869.58592,346 c -1.91308,0 -9.01503,-2.20891 -15.78212,-4.90869 -24.84991,-9.91406 -42.83727,-13.38882 -69.3038,-13.38795 -22.12774,7.2e-4 -37.70293,2.41343 -57.5,8.90715 -36.07096,11.83178 -67.34804,34.06511 -94.46667,67.15169 -6.70505,8.18062 -11.7942,11.24954 -18.59905,11.21584 -7.33345,-0.0363 -11.79929,-2.81675 -19.41311,-12.08657 -14.5211,-17.67944 -33.8775,-35.12268 -51.52117,-46.42891 -9.65545,-6.1873 -31.24505,-16.49997 -41.5,-19.82324 -10.04323,-3.25466 -24.13702,-6.62311 -27.75,-6.63231 L 471,330 l 0.0269,149.75 0.0269,149.75 4.09151,2.5 c 5.3673,3.27954 10.53755,9.65963 12.92969,15.95523 1.8364,4.83302 1.92501,8.43874 1.92501,78.33173 0,45.25917 -0.40243,76.50467 -1.05277,81.73927 -3.24706,26.13569 -12.02328,43.08966 -29.65658,57.29079 -12.44866,10.02563 -20.34244,13.7818 -35.29065,16.79266 -11.27439,2.27089 -37.46461,3.2261 -49.89288,1.8197 z M 100.16391,724.87893 C 76.326688,720.91539 50.800835,703.7952 35.805701,681.71388 12.646371,647.61026 14.798388,609.9866 43.28234,551 c 3.851035,-7.975 20.391914,-42.625 36.757509,-77 26.151621,-54.93 30.040531,-62.53193 32.107891,-62.76359 2.17937,-0.24422 4.27725,3.79834 28.54225,55 14.40449,30.39497 31.11906,65.61359 37.14349,78.26359 12.05208,25.30676 18.34878,41.66978 23.3054,60.56298 2.93256,11.17807 3.25743,13.80357 3.20933,25.93702 -0.042,10.6039 -0.51905,15.21621 -2.22361,21.5 -12.38035,45.63967 -59.90012,79.37258 -101.96069,72.37893 z"
       id="path3290"
       inkscape:connector-curvature="0" />
    <path
       style="fill:#000000"
       d="m 376.30144,883.93389 c -43.27167,-4.18851 -78.39588,-22.00629 -94.51629,-47.94616 -6.76569,-10.88689 -9.91124,-21.09524 -10.54737,-34.22969 -0.50919,-10.51378 -0.45331,-10.87793 2.63067,-17.14239 6.0591,-12.30779 17.76082,-19.5035 33.14297,-20.38056 14.42554,-0.8225 25.57314,3.24746 33.9253,12.38604 4.24877,4.64884 5.93544,7.86344 10.23159,19.50025 1.45846,3.95048 8.5169,10.57818 14.24263,13.37349 6.74117,3.29104 24.85781,6.3569 27.00987,4.57085 1.32206,-1.09721 1.5476,-11.38565 1.79558,-81.91027 L 394.5,651.5 l 2.82852,-5.76015 c 1.85092,-3.76933 4.87509,-7.56163 8.75,-10.97246 L 412,629.55508 412,479.77754 c 0,-141.97964 -0.0911,-149.7774 -1.75,-149.77485 -0.9625,0.001 -7.1091,1.35744 -13.65911,3.01324 -38.2599,9.67187 -72.19989,31.57809 -101.65264,65.61068 C 286.14482,408.7874 282.59003,411 275.05903,411 c -7.31114,0 -11.54667,-2.57821 -19.26913,-11.7293 -24.65134,-29.21177 -57.4204,-52.03901 -89.99431,-62.6909 -42.78271,-13.99024 -88.346151,-12.29078 -129.117232,4.81592 -12.956408,5.43624 -16.075394,6.113 -21.473662,4.6594 C 2.3864459,342.60352 -3.1418644,327.02721 4.5248636,315.96412 9.5925149,308.6515 36.849968,274.95394 47.366756,263 108.47911,193.53644 171.11446,143.57349 257,95.779818 289.36941,77.766856 329.74596,57.319551 429,8.6763707 c 20.01594,-9.8095673 21.14967,-9.804341 41.5,0.19131 C 491.30121,19.084791 513.32435,29.034794 561.29101,49.886841 648.00096,87.581361 677.93029,102.61417 713.5,126.33788 770.5677,164.39996 818.31195,214.20126 865.60859,285 887.8307,318.26446 888.5,319.48219 888.5,326.6489 c 0,5.25489 -0.44859,6.81389 -3,10.4259 -6.28657,8.89986 -16.4736,10.77172 -28.5,5.23687 -16.92771,-7.79056 -36.56038,-12.67549 -58.17839,-14.47574 -47.85159,-3.98487 -95.76989,11.41717 -134.2299,43.14456 -7.86561,6.48869 -24.03134,22.80068 -33.11286,33.41245 -12.45834,14.55758 -24.02472,14.33361 -36.14456,-0.6999 C 563.05037,363.64792 521.10209,337.98958 474.25,329.62989 L 471,329.05 l 0.022,150.225 0.022,150.225 4.55885,3 c 6.04012,3.97476 11.99994,12.3386 13.42561,18.84112 0.80679,3.67975 1.01672,27.09252 0.7322,81.65888 -0.3801,72.89543 -0.49612,76.92678 -2.4623,85.55759 -3.94457,17.31524 -9.83381,28.65799 -20.494,39.47172 -12.69718,12.88005 -25.82862,20.53906 -40.20637,23.45068 -16.11896,3.26423 -33.27675,4.10134 -50.29652,2.4539 z M 101.53078,724.94511 C 70.80327,720.16832 39.359659,695.03459 27.015782,665.38327 21.452936,652.02071 20.496537,646.87052 20.537901,630.5 20.572233,616.91291 20.875049,614.36476 23.752715,603.44787 29.27649,582.49253 33.717751,571.42274 51.214388,535 c 9.379355,-19.525 25.481439,-53.275 35.782409,-75 25.257073,-53.26778 23.101773,-49.13151 25.423543,-48.79084 1.5501,0.22745 6.63605,10.09922 23.33394,45.29084 11.74349,24.75 28.13513,59.175 36.42587,76.5 19.13456,39.98513 25.224,55.6937 30.23677,78 3.74801,16.67826 2.8794,31.45302 -2.83737,48.26248 -8.12699,23.89643 -27.6565,45.64345 -51.66236,57.52841 -14.41831,7.1383 -32.4882,10.31479 -46.38641,8.15422 z"
       id="path3288"
       inkscape:connector-curvature="0" />
  </g>
</svg>
